# Blender 4.1.1
# www.blender.org
mtllib cylinder.mtl
o Cylinder
v -0.000000 0.000000 0.500000
v -0.000000 1.000000 0.500000
v -0.097545 0.000000 0.490393
v -0.097545 1.000000 0.490393
v -0.191342 0.000000 0.461940
v -0.191342 1.000000 0.461940
v -0.277785 0.000000 0.415735
v -0.277785 1.000000 0.415735
v -0.353553 0.000000 0.353553
v -0.353553 1.000000 0.353553
v -0.415735 0.000000 0.277785
v -0.415735 1.000000 0.277785
v -0.461940 0.000000 0.191342
v -0.461940 1.000000 0.191342
v -0.490393 0.000000 0.097545
v -0.490393 1.000000 0.097545
v -0.500000 0.000000 0.000000
v -0.500000 1.000000 0.000000
v -0.490393 0.000000 -0.097545
v -0.490393 1.000000 -0.097545
v -0.461940 0.000000 -0.191342
v -0.461940 1.000000 -0.191342
v -0.415735 0.000000 -0.277785
v -0.415735 1.000000 -0.277785
v -0.353553 0.000000 -0.353553
v -0.353553 1.000000 -0.353553
v -0.277785 0.000000 -0.415735
v -0.277785 1.000000 -0.415735
v -0.191342 0.000000 -0.461940
v -0.191342 1.000000 -0.461940
v -0.097545 0.000000 -0.490393
v -0.097545 1.000000 -0.490393
v -0.000000 0.000000 -0.500000
v -0.000000 1.000000 -0.500000
v 0.097545 0.000000 -0.490393
v 0.097545 1.000000 -0.490393
v 0.191342 0.000000 -0.461940
v 0.191342 1.000000 -0.461940
v 0.277785 0.000000 -0.415735
v 0.277785 1.000000 -0.415735
v 0.353553 0.000000 -0.353553
v 0.353553 1.000000 -0.353553
v 0.415735 0.000000 -0.277785
v 0.415735 1.000000 -0.277785
v 0.461940 0.000000 -0.191342
v 0.461940 1.000000 -0.191342
v 0.490393 0.000000 -0.097545
v 0.490393 1.000000 -0.097545
v 0.500000 0.000000 0.000000
v 0.500000 1.000000 0.000000
v 0.490393 0.000000 0.097545
v 0.490393 1.000000 0.097545
v 0.461940 0.000000 0.191342
v 0.461940 1.000000 0.191342
v 0.415735 0.000000 0.277785
v 0.415735 1.000000 0.277785
v 0.353553 0.000000 0.353553
v 0.353553 1.000000 0.353553
v 0.277785 0.000000 0.415735
v 0.277785 1.000000 0.415735
v 0.191342 0.000000 0.461940
v 0.191342 1.000000 0.461940
v 0.097545 0.000000 0.490393
v 0.097545 1.000000 0.490393
v -0.004230 1.000000 0.466170
v -0.104919 1.000000 0.423109
v -0.200651 1.000000 0.362863
v -0.287748 1.000000 0.287748
v -0.362863 1.000000 0.200651
v -0.423109 1.000000 0.104919
v -0.466170 1.000000 0.004230
v 0.092617 1.000000 0.420663
v -0.008590 1.000000 0.362144
v -0.108391 1.000000 0.288630
v -0.202949 1.000000 0.202949
v -0.288631 1.000000 0.108391
v -0.362144 1.000000 0.008590
v -0.420663 1.000000 -0.092617
v 0.188226 1.000000 0.356669
v 0.092114 1.000000 0.283216
v -0.006857 1.000000 0.198198
v -0.104883 1.000000 0.104883
v -0.198198 1.000000 0.006856
v -0.283216 1.000000 -0.092114
v -0.356669 1.000000 -0.188226
v 0.277785 1.000000 0.277785
v 0.191342 1.000000 0.191342
v 0.097545 1.000000 0.097545
v -0.000000 1.000000 0.000000
v -0.097545 1.000000 -0.097545
v -0.191342 1.000000 -0.191342
v -0.277785 1.000000 -0.277785
v 0.356669 1.000000 0.188226
v 0.283216 1.000000 0.092114
v 0.198198 1.000000 -0.006856
v 0.104883 1.000000 -0.104883
v 0.006856 1.000000 -0.198198
v -0.092114 1.000000 -0.283216
v -0.188226 1.000000 -0.356669
v 0.420663 1.000000 0.092617
v 0.362144 1.000000 -0.008590
v 0.288630 1.000000 -0.108391
v 0.202949 1.000000 -0.202948
v 0.108390 1.000000 -0.288630
v 0.008590 1.000000 -0.362144
v -0.092617 1.000000 -0.420663
v 0.466170 1.000000 -0.004230
v 0.423108 1.000000 -0.104919
v 0.362863 1.000000 -0.200651
v 0.287748 1.000000 -0.287748
v 0.200651 1.000000 -0.362863
v 0.104919 1.000000 -0.423109
v 0.004230 1.000000 -0.466170
v -0.466170 0.000000 0.004230
v -0.423109 0.000000 0.104919
v -0.362863 0.000000 0.200651
v -0.287748 0.000000 0.287748
v -0.200651 0.000000 0.362863
v -0.104919 0.000000 0.423109
v -0.004230 0.000000 0.466170
v -0.420663 0.000000 -0.092617
v -0.362144 0.000000 0.008590
v -0.288630 0.000000 0.108391
v -0.202949 0.000000 0.202949
v -0.108391 0.000000 0.288631
v -0.008590 0.000000 0.362144
v 0.092617 0.000000 0.420663
v -0.356669 0.000000 -0.188226
v -0.283216 0.000000 -0.092114
v -0.198198 0.000000 0.006857
v -0.104883 0.000000 0.104883
v -0.006856 0.000000 0.198198
v 0.092114 0.000000 0.283216
v 0.188226 0.000000 0.356669
v -0.277785 0.000000 -0.277785
v -0.191342 0.000000 -0.191342
v -0.097545 0.000000 -0.097545
v -0.000000 0.000000 0.000000
v 0.097545 0.000000 0.097545
v 0.191342 0.000000 0.191342
v 0.277785 0.000000 0.277785
v -0.188226 0.000000 -0.356669
v -0.092114 0.000000 -0.283216
v 0.006856 0.000000 -0.198198
v 0.104883 0.000000 -0.104883
v 0.198198 0.000000 -0.006856
v 0.283216 0.000000 0.092114
v 0.356669 0.000000 0.188226
v -0.092617 0.000000 -0.420663
v 0.008590 0.000000 -0.362144
v 0.108391 0.000000 -0.288630
v 0.202948 0.000000 -0.202949
v 0.288630 0.000000 -0.108390
v 0.362144 0.000000 -0.008590
v 0.420663 0.000000 0.092617
v 0.004230 0.000000 -0.466170
v 0.104919 0.000000 -0.423108
v 0.200651 0.000000 -0.362863
v 0.287748 0.000000 -0.287748
v 0.362863 0.000000 -0.200651
v 0.423109 0.000000 -0.104919
v 0.466170 0.000000 -0.004230
vn -0.0980 -0.0000 0.9952
vn -0.2903 -0.0000 0.9569
vn -0.4714 -0.0000 0.8819
vn -0.6344 -0.0000 0.7730
vn -0.7730 -0.0000 0.6344
vn -0.8819 -0.0000 0.4714
vn -0.9569 -0.0000 0.2903
vn -0.9952 -0.0000 0.0980
vn -0.9952 -0.0000 -0.0980
vn -0.9569 -0.0000 -0.2903
vn -0.8819 -0.0000 -0.4714
vn -0.7730 -0.0000 -0.6344
vn -0.6344 -0.0000 -0.7730
vn -0.4714 -0.0000 -0.8819
vn -0.2903 -0.0000 -0.9569
vn -0.0980 -0.0000 -0.9952
vn 0.0980 -0.0000 -0.9952
vn 0.2903 -0.0000 -0.9569
vn 0.4714 -0.0000 -0.8819
vn 0.6344 -0.0000 -0.7730
vn 0.7730 -0.0000 -0.6344
vn 0.8819 -0.0000 -0.4714
vn 0.9569 -0.0000 -0.2903
vn 0.9952 -0.0000 -0.0980
vn 0.9952 -0.0000 0.0980
vn 0.9569 -0.0000 0.2903
vn 0.8819 -0.0000 0.4714
vn 0.7730 -0.0000 0.6344
vn 0.6344 -0.0000 0.7730
vn 0.4714 -0.0000 0.8819
vn -0.0000 1.0000 -0.0000
vn 0.2903 -0.0000 0.9569
vn 0.0980 -0.0000 0.9952
vn -0.0000 -1.0000 -0.0000
vt 1.000000 0.500000
vt 1.000000 1.000000
vt 0.968750 1.000000
vt 0.968750 0.500000
vt 0.937500 1.000000
vt 0.937500 0.500000
vt 0.906250 1.000000
vt 0.906250 0.500000
vt 0.875000 1.000000
vt 0.875000 0.500000
vt 0.843750 1.000000
vt 0.843750 0.500000
vt 0.812500 1.000000
vt 0.812500 0.500000
vt 0.781250 1.000000
vt 0.781250 0.500000
vt 0.750000 1.000000
vt 0.750000 0.500000
vt 0.718750 1.000000
vt 0.718750 0.500000
vt 0.687500 1.000000
vt 0.687500 0.500000
vt 0.656250 1.000000
vt 0.656250 0.500000
vt 0.625000 1.000000
vt 0.625000 0.500000
vt 0.593750 1.000000
vt 0.593750 0.500000
vt 0.562500 1.000000
vt 0.562500 0.500000
vt 0.531250 1.000000
vt 0.531250 0.500000
vt 0.500000 1.000000
vt 0.500000 0.500000
vt 0.468750 1.000000
vt 0.468750 0.500000
vt 0.437500 1.000000
vt 0.437500 0.500000
vt 0.406250 1.000000
vt 0.406250 0.500000
vt 0.375000 1.000000
vt 0.375000 0.500000
vt 0.343750 1.000000
vt 0.343750 0.500000
vt 0.312500 1.000000
vt 0.312500 0.500000
vt 0.281250 1.000000
vt 0.281250 0.500000
vt 0.250000 1.000000
vt 0.250000 0.500000
vt 0.218750 1.000000
vt 0.218750 0.500000
vt 0.187500 1.000000
vt 0.187500 0.500000
vt 0.156250 1.000000
vt 0.156250 0.500000
vt 0.125000 1.000000
vt 0.125000 0.500000
vt 0.093750 1.000000
vt 0.093750 0.500000
vt 0.062500 1.000000
vt 0.062500 0.500000
vt 0.031250 1.000000
vt 0.382401 1.000000
vt 0.500000 1.000000
vt 0.031250 0.500000
vt 0.000000 1.000000
vt 0.000000 0.500000
vt 0.338068 1.000000
vt 0.320652 1.000000
vt 0.315341 1.000000
vt 0.314967 1.000000
vt 0.312500 1.000000
vt 0.617599 1.000000
vt 0.442708 1.000000
vt 0.410714 1.000000
vt 0.390625 1.000000
vt 0.356086 1.000000
vt 0.661932 1.000000
vt 0.557292 1.000000
vt 0.463710 1.000000
vt 0.414931 1.000000
vt 0.389205 1.000000
vt 0.679348 1.000000
vt 0.589286 1.000000
vt 0.536290 1.000000
vt 0.471774 1.000000
vt 0.446429 1.000000
vt 0.418478 1.000000
vt 0.684659 1.000000
vt 0.609375 1.000000
vt 0.528226 1.000000
vt 0.473958 1.000000
vt 0.446023 1.000000
vt 0.685033 1.000000
vt 0.585069 1.000000
vt 0.553571 1.000000
vt 0.526042 1.000000
vt 0.472862 1.000000
vt 0.687500 1.000000
vt 0.643914 1.000000
vt 0.610795 1.000000
vt 0.581522 1.000000
vt 0.553977 1.000000
vt 0.527138 1.000000
vt 0.687500 0.500000
vt 0.643914 0.500000
vt 0.610795 0.500000
vt 0.581522 0.500000
vt 0.553977 0.500000
vt 0.527138 0.500000
vt 0.500000 0.500000
vt 0.685033 0.500000
vt 0.625000 0.500000
vt 0.585069 0.500000
vt 0.553571 0.500000
vt 0.526042 0.500000
vt 0.472862 0.500000
vt 0.684659 0.500000
vt 0.609375 0.500000
vt 0.528226 0.500000
vt 0.473958 0.500000
vt 0.446023 0.500000
vt 0.679348 0.500000
vt 0.589286 0.500000
vt 0.536290 0.500000
vt 0.471774 0.500000
vt 0.446429 0.500000
vt 0.418478 0.500000
vt 0.661932 0.500000
vt 0.557292 0.500000
vt 0.463710 0.500000
vt 0.437500 0.500000
vt 0.414931 0.500000
vt 0.389205 0.500000
vt 0.617599 0.500000
vt 0.442708 0.500000
vt 0.410714 0.500000
vt 0.390625 0.500000
vt 0.356086 0.500000
vt 0.500000 0.500000
vt 0.382401 0.500000
vt 0.338068 0.500000
vt 0.320652 0.500000
vt 0.315341 0.500000
vt 0.314967 0.500000
vt 0.312500 0.500000
s 0
f 1/1/1 2/2/1 4/3/1 3/4/1
f 3/4/2 4/3/2 6/5/2 5/6/2
f 5/6/3 6/5/3 8/7/3 7/8/3
f 7/8/4 8/7/4 10/9/4 9/10/4
f 9/10/5 10/9/5 12/11/5 11/12/5
f 11/12/6 12/11/6 14/13/6 13/14/6
f 13/14/7 14/13/7 16/15/7 15/16/7
f 15/16/8 16/15/8 18/17/8 17/18/8
f 17/18/9 18/17/9 20/19/9 19/20/9
f 19/20/10 20/19/10 22/21/10 21/22/10
f 21/22/11 22/21/11 24/23/11 23/24/11
f 23/24/12 24/23/12 26/25/12 25/26/12
f 25/26/13 26/25/13 28/27/13 27/28/13
f 27/28/14 28/27/14 30/29/14 29/30/14
f 29/30/15 30/29/15 32/31/15 31/32/15
f 31/32/16 32/31/16 34/33/16 33/34/16
f 33/34/17 34/33/17 36/35/17 35/36/17
f 35/36/18 36/35/18 38/37/18 37/38/18
f 37/38/19 38/37/19 40/39/19 39/40/19
f 39/40/20 40/39/20 42/41/20 41/42/20
f 41/42/21 42/41/21 44/43/21 43/44/21
f 43/44/22 44/43/22 46/45/22 45/46/22
f 45/46/23 46/45/23 48/47/23 47/48/23
f 47/48/24 48/47/24 50/49/24 49/50/24
f 49/50/25 50/49/25 52/51/25 51/52/25
f 51/52/26 52/51/26 54/53/26 53/54/26
f 53/54/27 54/53/27 56/55/27 55/56/27
f 55/56/28 56/55/28 58/57/28 57/58/28
f 57/58/29 58/57/29 60/59/29 59/60/29
f 59/60/30 60/59/30 62/61/30 61/62/30
f 64/63/31 62/61/31 72/64/31 65/65/31
f 61/62/32 62/61/32 64/63/32 63/66/32
f 63/66/33 64/63/33 2/67/33 1/68/33
f 2/2/31 64/63/31 65/65/31 4/3/31
f 62/61/31 60/59/31 79/69/31 72/64/31
f 60/59/31 58/57/31 86/70/31 79/69/31
f 58/57/31 56/55/31 93/71/31 86/70/31
f 56/55/31 54/53/31 100/72/31 93/71/31
f 54/53/31 52/51/31 107/73/31 100/72/31
f 52/51/31 50/49/31 48/47/31 107/73/31
f 4/3/31 65/65/31 66/74/31 6/5/31
f 65/65/31 72/64/31 73/65/31 66/74/31
f 72/64/31 79/69/31 80/75/31 73/65/31
f 79/69/31 86/70/31 87/76/31 80/75/31
f 86/70/31 93/71/31 94/77/31 87/76/31
f 93/71/31 100/72/31 101/41/31 94/77/31
f 100/72/31 107/73/31 108/78/31 101/41/31
f 107/73/31 48/47/31 46/45/31 108/78/31
f 6/5/31 66/74/31 67/79/31 8/7/31
f 66/74/31 73/65/31 74/80/31 67/79/31
f 73/65/31 80/75/31 81/33/31 74/80/31
f 80/75/31 87/76/31 88/81/31 81/33/31
f 87/76/31 94/77/31 95/37/31 88/81/31
f 94/77/31 101/41/31 102/82/31 95/37/31
f 101/41/31 108/78/31 109/83/31 102/82/31
f 108/78/31 46/45/31 44/43/31 109/83/31
f 8/7/31 67/79/31 68/84/31 10/9/31
f 67/79/31 74/80/31 75/85/31 68/84/31
f 74/80/31 81/33/31 82/86/31 75/85/31
f 81/33/31 88/81/31 89/33/31 82/86/31
f 88/81/31 95/37/31 96/87/31 89/33/31
f 95/37/31 102/82/31 103/88/31 96/87/31
f 102/82/31 109/83/31 110/89/31 103/88/31
f 109/83/31 44/43/31 42/41/31 110/89/31
f 10/9/31 68/84/31 69/90/31 12/11/31
f 68/84/31 75/85/31 76/91/31 69/90/31
f 75/85/31 82/86/31 83/29/31 76/91/31
f 82/86/31 89/33/31 90/92/31 83/29/31
f 89/33/31 96/87/31 97/33/31 90/92/31
f 96/87/31 103/88/31 104/93/31 97/33/31
f 103/88/31 110/89/31 111/94/31 104/93/31
f 110/89/31 42/41/31 40/39/31 111/94/31
f 12/11/31 69/90/31 70/95/31 14/13/31
f 69/90/31 76/91/31 77/25/31 70/95/31
f 76/91/31 83/29/31 84/96/31 77/25/31
f 83/29/31 90/92/31 91/97/31 84/96/31
f 90/92/31 97/33/31 98/98/31 91/97/31
f 97/33/31 104/93/31 105/33/31 98/98/31
f 104/93/31 111/94/31 112/99/31 105/33/31
f 111/94/31 40/39/31 38/37/31 112/99/31
f 14/13/31 70/95/31 71/100/31 16/15/31
f 70/95/31 77/25/31 78/101/31 71/100/31
f 77/25/31 84/96/31 85/102/31 78/101/31
f 84/96/31 91/97/31 92/103/31 85/102/31
f 91/97/31 98/98/31 99/104/31 92/103/31
f 98/98/31 105/33/31 106/105/31 99/104/31
f 105/33/31 112/99/31 113/65/31 106/105/31
f 112/99/31 38/37/31 36/35/31 113/65/31
f 16/15/31 71/100/31 20/19/31 18/17/31
f 71/100/31 78/101/31 22/21/31 20/19/31
f 78/101/31 85/102/31 24/23/31 22/21/31
f 85/102/31 92/103/31 26/25/31 24/23/31
f 92/103/31 99/104/31 28/27/31 26/25/31
f 99/104/31 106/105/31 30/29/31 28/27/31
f 106/105/31 113/65/31 32/31/31 30/29/31
f 113/65/31 36/35/31 34/33/31 32/31/31
f 17/18/34 19/20/34 114/106/34 15/16/34
f 19/20/34 21/22/34 121/107/34 114/106/34
f 21/22/34 23/24/34 128/108/34 121/107/34
f 23/24/34 25/26/34 135/109/34 128/108/34
f 25/26/34 27/28/34 142/110/34 135/109/34
f 27/28/34 29/30/34 149/111/34 142/110/34
f 29/30/34 31/32/34 156/112/34 149/111/34
f 31/32/34 33/34/34 35/36/34 156/112/34
f 15/16/34 114/106/34 115/113/34 13/14/34
f 114/106/34 121/107/34 122/114/34 115/113/34
f 121/107/34 128/108/34 129/115/34 122/114/34
f 128/108/34 135/109/34 136/116/34 129/115/34
f 135/109/34 142/110/34 143/117/34 136/116/34
f 142/110/34 149/111/34 150/34/34 143/117/34
f 149/111/34 156/112/34 157/118/34 150/34/34
f 156/112/34 35/36/34 37/38/34 157/118/34
f 13/14/34 115/113/34 116/119/34 11/12/34
f 115/113/34 122/114/34 123/120/34 116/119/34
f 122/114/34 129/115/34 130/30/34 123/120/34
f 129/115/34 136/116/34 137/121/34 130/30/34
f 136/116/34 143/117/34 144/34/34 137/121/34
f 143/117/34 150/34/34 151/122/34 144/34/34
f 150/34/34 157/118/34 158/123/34 151/122/34
f 157/118/34 37/38/34 39/40/34 158/123/34
f 11/12/34 116/119/34 117/124/34 9/10/34
f 116/119/34 123/120/34 124/125/34 117/124/34
f 123/120/34 130/30/34 131/126/34 124/125/34
f 130/30/34 137/121/34 138/34/34 131/126/34
f 137/121/34 144/34/34 145/127/34 138/34/34
f 144/34/34 151/122/34 152/128/34 145/127/34
f 151/122/34 158/123/34 159/129/34 152/128/34
f 158/123/34 39/40/34 41/42/34 159/129/34
f 9/10/34 117/124/34 118/130/34 7/8/34
f 117/124/34 124/125/34 125/131/34 118/130/34
f 124/125/34 131/126/34 132/34/34 125/131/34
f 131/126/34 138/34/34 139/132/34 132/34/34
f 138/34/34 145/127/34 146/133/34 139/132/34
f 145/127/34 152/128/34 153/134/34 146/133/34
f 152/128/34 159/129/34 160/135/34 153/134/34
f 159/129/34 41/42/34 43/44/34 160/135/34
f 7/8/34 118/130/34 119/136/34 5/6/34
f 118/130/34 125/131/34 126/34/34 119/136/34
f 125/131/34 132/34/34 133/137/34 126/34/34
f 132/34/34 139/132/34 140/138/34 133/137/34
f 139/132/34 146/133/34 147/139/34 140/138/34
f 146/133/34 153/134/34 154/42/34 147/139/34
f 153/134/34 160/135/34 161/140/34 154/42/34
f 160/135/34 43/44/34 45/46/34 161/140/34
f 5/6/34 119/136/34 120/141/34 3/4/34
f 119/136/34 126/34/34 127/142/34 120/141/34
f 126/34/34 133/137/34 134/143/34 127/142/34
f 133/137/34 140/138/34 141/144/34 134/143/34
f 140/138/34 147/139/34 148/145/34 141/144/34
f 147/139/34 154/42/34 155/146/34 148/145/34
f 154/42/34 161/140/34 162/147/34 155/146/34
f 161/140/34 45/46/34 47/48/34 162/147/34
f 3/4/34 120/141/34 63/66/34 1/1/34
f 120/141/34 127/142/34 61/62/34 63/66/34
f 127/142/34 134/143/34 59/60/34 61/62/34
f 134/143/34 141/144/34 57/58/34 59/60/34
f 141/144/34 148/145/34 55/56/34 57/58/34
f 148/145/34 155/146/34 53/54/34 55/56/34
f 155/146/34 162/147/34 51/52/34 53/54/34
f 162/147/34 47/48/34 49/50/34 51/52/34
